{
  "accessors": [
    {
      "bufferView": 2,
      "componentType": 5126,
      "count": 6678,
      "max": [
        31.243223190307617,
        31.781192779541016,
        65.883232116699219
      ],
      "min": [
        -31.22899055480957,
        -34.291553497314453,
        24.257534027099609
      ],
      "type": "VEC3"
    },
    {
      "bufferView": 2,
      "byteOffset": 80136,
      "componentType": 5126,
      "count": 6678,
      "max": [
        0.9999079704284668,
        0.99998080730438232,
        0.99999701976776123
      ],
      "min": [
        -0.99961620569229126,
        -0.99973315000534058,
        -1
      ],
      "type": "VEC3"
    },
    {
      "bufferView": 3,
      "componentType": 5126,
      "count": 6678,
      "max": [
        0.99999892711639404,
        0.99994432926177979,
        0.99973320960998535,
        1
      ],
      "min": [
        -0.99999862909317017,
        -0.99991166591644287,
        -0.97831892967224121,
        -1
      ],
      "type": "VEC4"
    },
    {
      "bufferView": 1,
      "componentType": 5126,
      "count": 6678,
      "max": [
        4.5413818359375,
        2.3313069343566895
      ],
      "min": [
        -3.7213609218597412,
        -2.016016960144043
      ],
      "type": "VEC2"
    },
    {
      "bufferView": 0,
      "componentType": 5125,
      "count": 36528,
      "max": [
        6677
      ],
      "min": [
        0
      ],
      "type": "SCALAR"
    },
    {
      "bufferView": 2,
      "byteOffset": 160272,
      "componentType": 5126,
      "count": 4777,
      "max": [
        30.773828506469727,
        34.000568389892578,
        71.445755004882812
      ],
      "min": [
        -30.834877014160156,
        -0.41630899906158447,
        31.134628295898438
      ],
      "type": "VEC3"
    },
    {
      "bufferView": 2,
      "byteOffset": 217596,
      "componentType": 5126,
      "count": 4777,
      "max": [
        0.99982649087905884,
        0.9992142915725708,
        0.99999737739562988
      ],
      "min": [
        -0.99991965293884277,
        -0.99983805418014526,
        -0.9739149808883667
      ],
      "type": "VEC3"
    },
    {
      "bufferView": 3,
      "byteOffset": 106848,
      "componentType": 5126,
      "count": 4777,
      "max": [
        0.99657273292541504,
        0.99919432401657104,
        0.99886912107467651,
        1
      ],
      "min": [
        -0.99972200393676758,
        -0.99746161699295044,
        -0.99885267019271851,
        -1
      ],
      "type": "VEC4"
    },
    {
      "bufferView": 1,
      "byteOffset": 53424,
      "componentType": 5126,
      "count": 4777,
      "max": [
        2.3938241004943848,
        2.1625659465789795
      ],
      "min": [
        -2.0853259563446045,
        -1.2260750532150269
      ],
      "type": "VEC2"
    },
    {
      "bufferView": 0,
      "byteOffset": 146112,
      "componentType": 5125,
      "count": 26826,
      "max": [
        4776
      ],
      "min": [
        0
      ],
      "type": "SCALAR"
    },
    {
      "bufferView": 2,
      "byteOffset": 274920,
      "componentType": 5126,
      "count": 2961,
      "max": [
        30.190277099609375,
        24.855960845947266,
        50.109962463378906
      ],
      "min": [
        -30.190277099609375,
        -32.885414123535156,
        -0.0070250001735985279
      ],
      "type": "VEC3"
    },
    {
      "bufferView": 2,
      "byteOffset": 310452,
      "componentType": 5126,
      "count": 2961,
      "max": [
        1,
        1,
        1
      ],
      "min": [
        -1,
        -1,
        -1
      ],
      "type": "VEC3"
    },
    {
      "bufferView": 3,
      "byteOffset": 183280,
      "componentType": 5126,
      "count": 2961,
      "max": [
        1,
        1,
        0.99999982118606567,
        1
      ],
      "min": [
        -1,
        -1,
        -1,
        -1
      ],
      "type": "VEC4"
    },
    {
      "bufferView": 1,
      "byteOffset": 91640,
      "componentType": 5126,
      "count": 2961,
      "max": [
        1.8529230356216431,
        2.1364209651947021
      ],
      "min": [
        -0.95330202579498291,
        -1.2087550163269043
      ],
      "type": "VEC2"
    },
    {
      "bufferView": 0,
      "byteOffset": 253416,
      "componentType": 5125,
      "count": 9684,
      "max": [
        2960
      ],
      "min": [
        0
      ],
      "type": "SCALAR"
    }
  ],
  "asset": {
    "extras": {
      "author": "Interiors3D (https://sketchfab.com/Interiors3D)",
      "license": "CC-BY-4.0 (http://creativecommons.org/licenses/by/4.0/)",
      "source": "https://sketchfab.com/3d-models/fc42-o74-ca52329c0329407f8c2f43a694ce690d",
      "title": "FC42-O74"
    },
    "generator": "Sketchfab-9.97.0",
    "version": "2.0"
  },
  "bufferViews": [
    {
      "buffer": 0,
      "byteLength": 292152,
      "byteOffset": 0,
      "name": "floatBufferViews",
      "target": 34963
    },
    {
      "buffer": 0,
      "byteLength": 115328,
      "byteOffset": 292152,
      "byteStride": 8,
      "name": "floatBufferViews",
      "target": 34962
    },
    {
      "buffer": 0,
      "byteLength": 345984,
      "byteOffset": 407480,
      "byteStride": 12,
      "name": "floatBufferViews",
      "target": 34962
    },
    {
      "buffer": 0,
      "byteLength": 230656,
      "byteOffset": 753464,
      "byteStride": 16,
      "name": "floatBufferViews",
      "target": 34962
    }
  ],
  "buffers": [
    {
      "byteLength": 984120,
      "uri": "scene.bin"
    }
  ],
  "images": [
    {
      "uri": "textures/Fabric_baseColor.jpeg"
    },
    {
      "uri": "textures/Fabric_metallicRoughness.png"
    },
    {
      "uri": "textures/Fabric_normal.png"
    },
    {
      "uri": "textures/Wood_baseColor.jpeg"
    },
    {
      "uri": "textures/Wood_metallicRoughness.png"
    },
    {
      "uri": "textures/Wood_normal.png"
    }
  ],
  "materials": [
    {
      "doubleSided": true,
      "name": "Fabric",
      "normalTexture": {
        "index": 2,
        "scale": 1,
        "texCoord": 0
      },
      "pbrMetallicRoughness": {
        "baseColorFactor": [
          1,
          1,
          1,
          1
        ],
        "baseColorTexture": {
          "index": 0,
          "texCoord": 0
        },
        "metallicFactor": 0,
        "metallicRoughnessTexture": {
          "index": 1,
          "texCoord": 0
        },
        "roughnessFactor": 1
      }
    },
    {
      "doubleSided": true,
      "name": "Wood",
      "normalTexture": {
        "index": 5,
        "scale": 1,
        "texCoord": 0
      },
      "pbrMetallicRoughness": {
        "baseColorFactor": [
          1,
          1,
          1,
          1
        ],
        "baseColorTexture": {
          "index": 3,
          "texCoord": 0
        },
        "metallicFactor": 0,
        "metallicRoughnessTexture": {
          "index": 4,
          "texCoord": 0
        },
        "roughnessFactor": 1
      }
    }
  ],
  "meshes": [
    {
      "primitives": [
        {
          "attributes": {
            "NORMAL": 1,
            "POSITION": 0,
            "TANGENT": 2,
            "TEXCOORD_0": 3
          },
          "indices": 4,
          "material": 0,
          "mode": 4
        }
      ]
    },
    {
      "primitives": [
        {
          "attributes": {
            "NORMAL": 6,
            "POSITION": 5,
            "TANGENT": 7,
            "TEXCOORD_0": 8
          },
          "indices": 9,
          "material": 0,
          "mode": 4
        }
      ]
    },
    {
      "primitives": [
        {
          "attributes": {
            "NORMAL": 11,
            "POSITION": 10,
            "TANGENT": 12,
            "TEXCOORD_0": 13
          },
          "indices": 14,
          "material": 1,
          "mode": 4
        }
      ]
    }
  ],
  "nodes": [
    {
      "children": [
        1
      ],
      "name": "RootNode (gltf orientation matrix)",
      "rotation": [
        -0.70710678118654746,
        -0,
        -0,
        0.70710678118654757
      ]
    },
    {
      "children": [
        2
      ],
      "name": "RootNode (model correction matrix)"
    },
    {
      "children": [
        3,
        4,
        5
      ],
      "name": "W53 - FC42-O74 - Sketchfab - mesh.obj.cleaner.materialmerger.gles"
    },
    {
      "mesh": 0,
      "name": ""
    },
    {
      "mesh": 1,
      "name": ""
    },
    {
      "mesh": 2,
      "name": ""
    }
  ],
  "samplers": [
    {
      "magFilter": 9729,
      "minFilter": 9987,
      "wrapS": 10497,
      "wrapT": 10497
    }
  ],
  "scene": 0,
  "scenes": [
    {
      "name": "OSG_Scene",
      "nodes": [
        0
      ]
    }
  ],
  "textures": [
    {
      "sampler": 0,
      "source": 0
    },
    {
      "sampler": 0,
      "source": 1
    },
    {
      "sampler": 0,
      "source": 2
    },
    {
      "sampler": 0,
      "source": 3
    },
    {
      "sampler": 0,
      "source": 4
    },
    {
      "sampler": 0,
      "source": 5
    }
  ]
}

